# xmcd
#
# Track frame offsets:
#	187
#	12647
#	30430
#	51825
#	67042
#	82100
#	96385
#	115710
#	133480
#	149070
#
# Disc length: 2333 seconds
#
# Revision: 0
# Processed by: cddbd v1.4PL0 Copyright (c) Steve Scherf et al.
# Submitted via: dBpowerAMP V4.0
#
DISCID=99091b0a
DTITLE=Larry Howard - Shout
DYEAR=1988
DGENRE=Blues
TTITLE0=Nobody but You
TTITLE1=Carry Your Brother
TTITLE2=It's Only You
TTITLE3=Shout!
TTITLE4=Connecting Roads
TTITLE5=Prisoner of the Lord
TTITLE6=Fire
TTITLE7=(Tell It) Goodbye
TTITLE8=Don't Turn Away
TTITLE9=A Road Leading Home
EXTD=
EXTT0=
EXTT1=
EXTT2=
EXTT3=
EXTT4=
EXTT5=
EXTT6=
EXTT7=
EXTT8=
EXTT9=
PLAYORDER=
